<svg width="1200" height="675" viewBox="0 0 1200 675" fill="none" xmlns="http://www.w3.org/2000/svg">
  <defs>
    <linearGradient id="bg" x1="0" y1="0" x2="1" y2="1">
      <stop offset="0%" stop-color="#111118" />
      <stop offset="100%" stop-color="#0a0a0f" />
    </linearGradient>
    <linearGradient id="accent" x1="0" y1="0" x2="1" y2="0">
      <stop offset="0%" stop-color="#8b5cf6" stop-opacity="0.9" />
      <stop offset="100%" stop-color="#6366f1" stop-opacity="0.9" />
    </linearGradient>
  </defs>
  <rect width="1200" height="675" rx="24" fill="url(#bg)" />
  <rect x="48" y="48" width="1104" height="579" rx="18" fill="#16161e" stroke="#27272a" />
  <rect x="96" y="120" width="420" height="18" rx="9" fill="url(#accent)" opacity="0.9" />
  <rect x="96" y="156" width="320" height="12" rx="6" fill="#3f3f46" opacity="0.8" />
  <rect x="96" y="184" width="280" height="12" rx="6" fill="#3f3f46" opacity="0.55" />
  <rect x="96" y="240" width="1008" height="1" fill="#27272a" />
  <rect x="96" y="280" width="220" height="14" rx="7" fill="#3f3f46" opacity="0.7" />
  <rect x="96" y="312" width="900" height="10" rx="5" fill="#27272a" opacity="0.9" />
  <rect x="96" y="336" width="840" height="10" rx="5" fill="#27272a" opacity="0.7" />
  <rect x="96" y="360" width="760" height="10" rx="5" fill="#27272a" opacity="0.5" />
  <rect x="96" y="412" width="320" height="14" rx="7" fill="#3f3f46" opacity="0.7" />
  <rect x="96" y="444" width="960" height="10" rx="5" fill="#27272a" opacity="0.9" />
  <rect x="96" y="468" width="910" height="10" rx="5" fill="#27272a" opacity="0.7" />
  <rect x="96" y="492" width="860" height="10" rx="5" fill="#27272a" opacity="0.5" />
  <text x="96" y="92" fill="#94a3b8" font-family="ui-monospace, SFMono-Regular, Menlo, Monaco, Consolas, 'Liberation Mono', 'Courier New', monospace" font-size="14">
    Drop demo videos into /public/demos/*.mp4
  </text>
</svg>

